<svg width="48" height="48" viewBox="0 0 256 256" fill="none" xmlns="http://www.w3.org/2000/svg"><path d="M226.028 110.177c-.543-.431-5.607-4.254-16.285-4.254-2.82.012-5.634.254-8.414.723-2.067-14.166-13.779-21.073-14.304-21.383l-2.868-1.654-1.886 2.722a38.428 38.428 0 00-5.098 11.918c-1.912 8.087-.749 15.682 3.358 22.176-4.96 2.764-12.917 3.445-14.527 3.505H34.261a6.26 6.26 0 00-6.253 6.226 94.797 94.797 0 005.77 33.853c4.539 11.902 11.29 20.668 20.074 26.033 9.844 6.029 25.836 9.473 43.963 9.473 8.19.026 16.364-.715 24.415-2.213a102.082 102.082 0 0031.864-11.574 87.599 87.599 0 0021.744-17.801c10.438-11.815 16.656-24.974 21.28-36.669h1.843c11.428 0 18.455-4.573 22.33-8.405a24.37 24.37 0 005.891-8.723l.818-2.394-1.972-1.559z" fill="#0091E2"/><path d="M46.472 120.071h17.654c.852 0 1.542-.69 1.542-1.542v-15.725a1.542 1.542 0 00-1.533-1.55H46.472c-.851 0-1.541.69-1.541 1.541v15.734c0 .852.69 1.542 1.541 1.542zM70.8 120.071h17.654c.852 0 1.542-.69 1.542-1.542v-15.725a1.542 1.542 0 00-1.533-1.55H70.8a1.55 1.55 0 00-1.55 1.55v15.725a1.55 1.55 0 001.55 1.542M95.499 120.071h17.654c.851 0 1.541-.69 1.541-1.542v-15.725a1.541 1.541 0 00-1.533-1.55H95.498c-.851 0-1.541.69-1.541 1.541v15.734c0 .852.69 1.542 1.542 1.542zM119.905 120.071h17.654a1.55 1.55 0 001.55-1.542v-15.725a1.55 1.55 0 00-1.55-1.55h-17.654c-.852 0-1.542.69-1.542 1.541v15.734c0 .852.69 1.542 1.542 1.542zM70.8 97.45h17.654a1.55 1.55 0 001.542-1.55V80.173c0-.851-.69-1.541-1.541-1.541H70.8a1.55 1.55 0 00-1.55 1.541V95.9a1.559 1.559 0 001.55 1.55zM95.499 97.45h17.654a1.55 1.55 0 001.541-1.55V80.173c0-.851-.69-1.541-1.541-1.541H95.499c-.852 0-1.542.69-1.542 1.541V95.9a1.55 1.55 0 001.542 1.55zM119.905 97.45h17.654a1.559 1.559 0 001.55-1.55V80.173a1.55 1.55 0 00-1.55-1.541h-17.654c-.852 0-1.542.69-1.542 1.541V95.9a1.55 1.55 0 001.542 1.55zM119.905 74.817h17.654a1.55 1.55 0 001.55-1.542V57.541a1.55 1.55 0 00-1.55-1.541h-17.654c-.852 0-1.542.69-1.542 1.541v15.734c0 .852.69 1.542 1.542 1.542zM144.526 120.071h17.654a1.55 1.55 0 001.55-1.542v-15.725a1.55 1.55 0 00-1.55-1.55h-17.654c-.851 0-1.542.69-1.542 1.541v15.734c0 .852.691 1.542 1.542 1.542" fill="#0091E2"/></svg>