<svg width="48" height="48" viewBox="0 0 256 256" fill="none" xmlns="http://www.w3.org/2000/svg"><path d="M111.349 134.856v51.883a.195.195 0 01-.163.197l-49.957 8.561a.202.202 0 01-.186-.074.199.199 0 01-.027-.202l49.954-111.56a.198.198 0 01.223-.112.199.199 0 01.158.194l-.002 51.113zm8.418-29.897v81.996a.21.21 0 00.051.132.203.203 0 00.126.065l74.827 8.355a.198.198 0 00.203-.278L120.146 28.113a.196.196 0 00-.221-.108.203.203 0 00-.111.066.204.204 0 00-.047.12v76.768zm74.431 98.201l-82.776 24.827a.21.21 0 01-.144 0L61.264 203.16a.198.198 0 01-.113-.223.198.198 0 01.2-.153h132.791a.198.198 0 01.146.108.18.18 0 01.021.091.197.197 0 01-.111.177z" fill="#326DE6"/></svg>