<svg width="48" height="48" viewBox="0 0 256 256" fill="none" xmlns="http://www.w3.org/2000/svg"><path d="M91.855 222.652a15.246 15.246 0 01-12.027-5.821L34.57 160.578c-2.98-3.75-4.143-8.534-2.98-13.187l16.167-70.218c1.034-4.657 4.136-8.408 8.406-10.475l65.433-31.295a15.106 15.106 0 016.726-1.551c2.326 0 4.655.517 6.725 1.55l65.434 31.166c4.267 2.068 7.369 5.819 8.405 10.476l16.165 70.218c1.033 4.655 0 9.442-2.975 13.192l-45.258 56.248c-2.975 3.621-7.371 5.821-12.026 5.821l-72.935.129h-.002z" fill="#326DE6"/><path d="M128.195 37.08c1.809 0 3.619.387 5.301 1.16l65.434 31.168c3.363 1.68 5.947 4.784 6.725 8.406l16.165 70.217a12.099 12.099 0 01-2.458 10.603l-45.26 56.255c-2.329 2.975-5.95 4.655-9.701 4.655H91.855c-3.75 0-7.372-1.68-9.698-4.655l-45.26-56.255a12.943 12.943 0 01-2.458-10.603l16.164-70.217c.905-3.75 3.363-6.855 6.725-8.406l65.434-31.295a15.572 15.572 0 015.433-1.034zm0-6.08c-2.716 0-5.433.646-8.017 1.81l-65.44 31.297a18.314 18.314 0 00-10.087 12.54l-16.162 70.221c-1.293 5.56 0 11.251 3.62 15.777l45.264 56.256c3.492 4.394 8.793 6.852 14.352 6.852h72.55c5.562 0 10.863-2.458 14.355-6.855l45.26-56.255c3.621-4.394 4.914-10.215 3.621-15.775l-16.164-70.22a18.31 18.31 0 00-10.086-12.54l-65.18-31.301A18.551 18.551 0 00128.195 31z" fill="#fff"/><path d="M193.758 142.473c-.132 0-.132 0 0 0h-.132c-.126 0-.256 0-.256-.132-.258 0-.517-.126-.778-.126-.904-.132-1.68-.259-2.455-.259-.39 0-.776 0-1.292-.132h-.132c-2.717-.255-4.914-.514-6.984-1.16-.905-.39-1.161-.907-1.422-1.424 0-.13-.129-.13-.129-.259l-1.68-.517a51.155 51.155 0 00-.907-18.235 53.293 53.293 0 00-7.24-16.94l1.292-1.163v-.258c0-.646.132-1.292.647-1.941 1.55-1.424 3.492-2.585 5.82-4.009.388-.259.776-.388 1.161-.646a19.325 19.325 0 002.199-1.293c.132-.131.391-.258.649-.516.129-.132.259-.132.259-.259 1.809-1.553 2.197-4.14.904-5.82-.646-.905-1.812-1.425-2.975-1.425-1.034 0-1.938.39-2.845 1.037l-.259.258c-.256.13-.388.388-.646.517-.646.646-1.163 1.163-1.68 1.812-.259.258-.517.646-.905.905-1.812 1.938-3.492 3.492-5.174 4.655-.34.242-.744.377-1.161.387-.261 0-.519 0-.778-.129h-.258l-1.554 1.034c-1.68-1.81-3.492-3.36-5.301-4.913a51.64 51.64 0 00-27.028-10.735l-.129-1.68-.258-.258c-.388-.388-.905-.776-1.034-1.68-.132-2.07.132-4.4.387-6.984v-.132c0-.385.132-.902.259-1.292.132-.773.258-1.551.388-2.456v-1.163c0-2.328-1.81-4.267-4.009-4.267-1.034 0-2.068.517-2.843 1.292-.776.776-1.166 1.81-1.166 2.975v1.034c0 .905.132 1.68.388 2.456.131.39.131.778.258 1.292v.132c.259 2.584.646 4.913.39 6.984-.131.904-.648 1.292-1.036 1.68l-.259.258-.129 1.68c-2.329.258-4.655.517-6.984 1.037a49.857 49.857 0 00-25.603 14.481l-1.293-.904h-.258c-.259 0-.52.13-.776.13a2.09 2.09 0 01-1.165-.389c-1.68-1.163-3.363-2.845-5.172-4.784-.259-.258-.517-.646-.905-.904a21.45 21.45 0 00-1.683-1.812c-.129-.13-.387-.259-.646-.517-.129-.13-.258-.13-.258-.259a4.52 4.52 0 00-2.846-1.034c-1.163 0-2.326.517-2.975 1.422-1.292 1.68-.904 4.267.907 5.818.13 0 .13.132.259.132.258.13.388.388.646.517.775.514 1.424.904 2.2 1.292.387.13.775.388 1.163.646 2.326 1.424 4.267 2.585 5.818 4.01.649.645.649 1.291.649 1.94v.259l1.292 1.163c-.258.387-.517.646-.646 1.034-6.467 10.217-8.925 22.243-7.243 34.141l-1.682.517c0 .129-.13.129-.13.258a3.008 3.008 0 01-1.423 1.424c-1.939.644-4.265.905-6.982 1.161h-.129c-.388 0-.905 0-1.292.132-.776 0-1.551.129-2.458.258-.259 0-.517.129-.776.129-.129 0-.258 0-.387.129-2.33.517-3.75 2.717-3.363 4.785.388 1.809 2.07 2.975 4.14 2.975.386 0 .644 0 1.035-.132.129 0 .258 0 .258-.127.258 0 .514-.132.773-.132a11.943 11.943 0 002.329-.904c.387-.13.775-.388 1.163-.517h.132c2.455-.905 4.654-1.68 6.725-1.939h.256c.775 0 1.292.388 1.682.646.13 0 .13.13.259.13l1.809-.259a51.148 51.148 0 0016.94 24.312c1.812 1.424 3.621 2.584 5.562 3.75l-.775 1.68c0 .132.129.132.129.259.259.516.517 1.165.259 2.07-.776 1.938-1.942 3.877-3.363 6.076v.132c-.259.388-.517.646-.776 1.034-.516.646-.904 1.292-1.424 2.068a2.81 2.81 0 00-.387.646c0 .132-.13.258-.13.258-1.033 2.2-.258 4.658 1.683 5.563a3.446 3.446 0 001.55.387c1.552 0 3.105-1.033 3.88-2.458 0-.129.132-.258.132-.258.099-.232.229-.449.385-.646.388-.905.517-1.551.776-2.329l.39-1.161c.905-2.587 1.551-4.657 2.717-6.466.514-.778 1.16-.908 1.677-1.166.132 0 .132 0 .258-.129l.908-1.68a50.512 50.512 0 0018.103 3.362c3.75 0 7.63-.387 11.251-1.292a57.516 57.516 0 006.725-1.941l.776 1.424c.131 0 .131 0 .258.127.646.132 1.163.387 1.683 1.165 1.033 1.81 1.809 4.009 2.716 6.465v.131l.385 1.161c.259.778.388 1.553.776 2.329.131.258.261.387.39.646 0 .132.129.258.129.258.776 1.554 2.326 2.458 3.877 2.458.52 0 1.037-.131 1.554-.387.904-.517 1.68-1.293 1.941-2.329.255-1.034.255-2.197-.259-3.234 0-.129-.132-.129-.132-.258-.129-.258-.258-.517-.387-.646-.388-.776-.905-1.424-1.425-2.068-.255-.388-.514-.646-.772-1.034v-.132c-1.425-2.197-2.717-4.138-3.363-6.076-.258-.905 0-1.424.129-2.07 0-.13.129-.13.129-.259l-.646-1.551c6.855-4.009 12.673-9.7 17.069-16.681 2.329-3.621 4.141-7.63 5.434-11.639l1.55.258c.13 0 .13-.131.259-.131.517-.256.904-.644 1.68-.644h.258c2.071.259 4.268 1.034 6.726 1.939h.131c.386.131.773.387 1.161.516.775.388 1.424.647 2.329.908.258 0 .517.129.775.129.132 0 .259 0 .388.129.387.129.646.129 1.036.129 1.939 0 3.619-1.292 4.138-2.975 0-1.55-1.424-3.621-3.75-4.267zm-59.874-6.337l-5.691 2.716-5.689-2.716-1.425-6.077 3.88-4.913h6.338l3.877 4.913-1.293 6.077h.003zm33.751-13.449a40.805 40.805 0 01.904 13.061l-19.785-5.689a3.51 3.51 0 01-2.456-4.141 3.077 3.077 0 01.776-1.421l15.647-14.094a41.463 41.463 0 014.914 12.284zm-11.122-20.044l-16.94 12.027a3.444 3.444 0 01-4.526-.776c-.388-.387-.517-.907-.646-1.424l-1.166-21.078a39.243 39.243 0 0123.278 11.251zm-37.504-10.605c1.424-.258 2.717-.516 4.141-.775l-1.163 20.69c-.132 1.81-1.554 3.363-3.492 3.363-.517 0-1.163-.132-1.554-.388l-17.195-12.285a39.452 39.452 0 0119.266-10.602v-.003h-.003zM93.537 110.4l15.387 13.709c1.424 1.163 1.553 3.363.39 4.784-.37.527-.924.897-1.553 1.037l-20.044 5.818c-.776-8.793 1.163-17.718 5.82-25.345v-.003zm-3.494 35.046l20.563-3.492a3.482 3.482 0 013.622 2.716c.129.775.129 1.424-.132 2.07l-7.886 19.008a40.76 40.76 0 01-16.167-20.302zm47.204 25.735a42.245 42.245 0 01-9.054 1.034c-4.526 0-8.923-.775-13.061-2.07l10.215-18.491c1.036-1.163 2.716-1.68 4.14-.905.604.37 1.129.852 1.551 1.422l9.956 17.976c-1.16.388-2.455.646-3.75 1.034h.003zm25.213-17.976c-3.231 5.174-7.498 9.31-12.411 12.543l-8.15-19.527a3.485 3.485 0 011.812-4.009c.517-.258 1.163-.388 1.812-.388l20.69 3.492c-.775 2.846-2.07 5.433-3.75 7.889h-.003z" fill="#fff"/></svg>